<svg version="1.1" xmlns="http://www.w3.org/2000/svg" x="0px" y="0px" viewBox="0 0 136 64" enable-background="new 0 0 136 64">
<path fill-rule="evenodd" clip-rule="evenodd" fill="#22C0F8" d="M34.476,19.645l-7.367-0.305v21.322c0,0.753-0.372,1.44-0.829,1.526l-10.574,1.988v6.464c0,0.859,0.48,1.465,1.063,1.346l17.707-3.609c0.436-0.089,0.79-0.763,0.79-1.499V21.015C35.266,20.279,34.912,19.663,34.476,19.645z"></path>
<path fill-rule="evenodd" clip-rule="evenodd" fill="#22C0F8" d="M16.769,18.912l10.34,0.428v-5.164c0-0.753-0.372-1.385-0.829-1.405L7.834,12.001c-0.603-0.025-1.1,0.669-1.1,1.543v30.728c0,0.874,0.497,1.496,1.1,1.383l7.873-1.48V20.43C15.707,19.571,16.187,18.888,16.769,18.912z"></path>
<path fill="currentColor" d="M58.763,28.759v-8.987h-5.01v8.987h-1.758V18.256h8.503v10.503H58.763z"></path>
<path fill="currentColor" d="M69.953,24.936c0,1.216-0.352,2.188-1.055,2.915s-1.658,1.091-2.864,1.091c-1.156,0-2.078-0.345-2.765-1.037c-0.686-0.69-1.028-1.627-1.028-2.809c0-1.245,0.352-2.227,1.055-2.944s1.677-1.077,2.922-1.077c1.172,0,2.088,0.343,2.746,1.029C69.624,22.791,69.953,23.734,69.953,24.936z M68.195,24.994c0-0.83-0.185-1.46-0.553-1.89c-0.369-0.43-0.876-0.645-1.521-0.645c-0.664,0-1.184,0.225-1.56,0.674s-0.563,1.084-0.563,1.904c0,0.796,0.188,1.415,0.563,1.856c0.376,0.442,0.901,0.663,1.575,0.663c0.678,0,1.19-0.217,1.537-0.652S68.195,25.834,68.195,24.994z"></path>
<path fill="currentColor" d="M78.926,24.811c0,1.26-0.311,2.263-0.93,3.01c-0.621,0.747-1.461,1.121-2.52,1.121c-0.908,0-1.614-0.376-2.117-1.128H73.33v4.395h-1.691v-10.95h1.691v1.201h0.029c0.596-0.923,1.426-1.384,2.49-1.384c0.957,0,1.709,0.334,2.256,1.003S78.926,23.659,78.926,24.811z M77.168,24.782c0-0.723-0.165-1.29-0.494-1.703c-0.33-0.413-0.79-0.619-1.381-0.619s-1.068,0.208-1.432,0.623c-0.364,0.415-0.546,0.952-0.546,1.611v0.959c0,0.552,0.173,1.007,0.521,1.366c0.346,0.358,0.778,0.538,1.296,0.538c0.645,0,1.145-0.239,1.501-0.718S77.168,25.675,77.168,24.782z"></path>
<path fill="currentColor" d="M83.049,22.621v6.138h-1.691v-6.138h-2.065v-1.362h5.823v1.362H83.049z"></path>
<path fill="currentColor" d="M95.427,25.009c0,0.723-0.159,1.372-0.479,1.948c-0.319,0.576-0.771,1.021-1.351,1.333c-0.582,0.313-1.253,0.469-2.015,0.469h-0.345v3.494h-1.633v-3.494h-0.359c-0.752,0-1.419-0.156-2.003-0.469c-0.583-0.313-1.035-0.757-1.354-1.333c-0.32-0.576-0.48-1.226-0.48-1.948c0-1.143,0.34-2.053,1.019-2.732s1.604-1.018,2.776-1.018h0.402v-3.223h1.633v3.223h0.396c1.172,0,2.097,0.339,2.775,1.018S95.427,23.866,95.427,25.009z M89.604,22.548h-0.213c-0.708,0-1.262,0.221-1.662,0.663s-0.601,1.056-0.601,1.842c0,0.737,0.206,1.325,0.619,1.762c0.412,0.437,0.982,0.655,1.71,0.655h0.146V22.548z M93.698,25.053c0-0.781-0.2-1.394-0.6-1.838c-0.401-0.444-0.955-0.667-1.663-0.667h-0.198v4.922h0.14c0.728,0,1.296-0.22,1.706-0.659S93.698,25.785,93.698,25.053z"></path>
<path fill="currentColor" d="M104.188,24.936c0,1.216-0.352,2.188-1.055,2.915s-1.658,1.091-2.864,1.091c-1.156,0-2.078-0.345-2.765-1.037c-0.686-0.69-1.028-1.627-1.028-2.809c0-1.245,0.352-2.227,1.055-2.944s1.677-1.077,2.922-1.077c1.172,0,2.088,0.343,2.746,1.029C103.858,22.791,104.188,23.734,104.188,24.936z M102.43,24.994c0-0.83-0.185-1.46-0.553-1.89c-0.369-0.43-0.876-0.645-1.521-0.645c-0.664,0-1.184,0.225-1.56,0.674s-0.563,1.084-0.563,1.904c0,0.796,0.188,1.415,0.563,1.856c0.376,0.442,0.901,0.663,1.575,0.663c0.678,0,1.19-0.217,1.537-0.652S102.43,25.834,102.43,24.994z"></path>
<path fill="currentColor" d="M110.376,28.759v-6.138h-1.714c-0.161,1.631-0.365,2.881-0.611,3.75c-0.247,0.869-0.569,1.499-0.967,1.89c-0.398,0.391-0.922,0.586-1.571,0.586c-0.352,0-0.605-0.029-0.762-0.088v-1.23c0.117,0.039,0.261,0.059,0.432,0.059c0.371,0,0.683-0.208,0.935-0.623c0.251-0.415,0.467-1.064,0.647-1.948s0.35-2.136,0.506-3.757h4.797v7.5H110.376z"></path>
<path fill="currentColor" d="M119.634,28.759V23.5l-3.882,5.259h-1.442v-7.5h1.604v5.112l3.765-5.112h1.546v7.5H119.634z"></path>
<path fill="currentColor" d="M130.62,24.936c0,1.216-0.352,2.188-1.055,2.915s-1.658,1.091-2.864,1.091c-1.156,0-2.078-0.345-2.765-1.037c-0.686-0.69-1.028-1.627-1.028-2.809c0-1.245,0.352-2.227,1.055-2.944s1.677-1.077,2.922-1.077c1.172,0,2.088,0.343,2.746,1.029C130.291,22.791,130.62,23.734,130.62,24.936z M128.862,24.994c0-0.83-0.185-1.46-0.553-1.89c-0.369-0.43-0.876-0.645-1.521-0.645c-0.664,0-1.184,0.225-1.56,0.674s-0.563,1.084-0.563,1.904c0,0.796,0.188,1.415,0.563,1.856c0.376,0.442,0.901,0.663,1.575,0.663c0.678,0,1.19-0.217,1.537-0.652S128.862,25.834,128.862,24.994z"></path>
<path fill="currentColor" d="M51.937,43.759V32.655h1.691v11.104H51.937z"></path>
<path fill="currentColor" d="M63.01,39.936c0,1.216-0.352,2.188-1.055,2.915s-1.658,1.092-2.864,1.092c-1.156,0-2.078-0.346-2.765-1.037c-0.686-0.69-1.028-1.627-1.028-2.809c0-1.245,0.352-2.227,1.055-2.944s1.677-1.076,2.922-1.076c1.172,0,2.088,0.343,2.746,1.028C62.681,37.791,63.01,38.734,63.01,39.936z M61.252,39.994c0-0.83-0.185-1.46-0.553-1.89c-0.369-0.43-0.876-0.645-1.521-0.645c-0.664,0-1.184,0.225-1.56,0.674s-0.563,1.084-0.563,1.904c0,0.796,0.188,1.415,0.563,1.856c0.376,0.442,0.901,0.663,1.575,0.663c0.678,0,1.19-0.217,1.537-0.651S61.252,40.834,61.252,39.994z"></path>
<path fill="currentColor" d="M68.188,43.759h-1.816l-2.776-7.5h1.861l1.882,5.845h0.029l1.94-5.845h1.787L68.188,43.759z"></path>
<path fill="currentColor" d="M73.257,40.507c0.034,0.684,0.241,1.204,0.622,1.561s0.926,0.534,1.634,0.534c0.425,0,0.832-0.066,1.224-0.201c0.39-0.134,0.732-0.307,1.025-0.517v1.429c-0.284,0.186-0.665,0.337-1.143,0.454c-0.479,0.117-0.984,0.176-1.517,0.176c-1.138,0-2.02-0.341-2.644-1.022c-0.626-0.681-0.938-1.627-0.938-2.838c0-0.801,0.154-1.501,0.465-2.102c0.31-0.601,0.739-1.068,1.289-1.403c0.549-0.334,1.153-0.501,1.813-0.501c1.035,0,1.84,0.317,2.413,0.952c0.574,0.635,0.86,1.514,0.86,2.637v0.842H73.257z M76.678,39.232c0-0.596-0.14-1.05-0.418-1.362s-0.669-0.469-1.172-0.469c-0.459,0-0.857,0.17-1.193,0.509c-0.338,0.34-0.55,0.78-0.638,1.322H76.678z"></path>
<path fill="currentColor" d="M84.374,41.613c0,0.698-0.269,1.261-0.805,1.688c-0.538,0.428-1.266,0.642-2.184,0.642c-0.298,0-0.636-0.039-1.014-0.117c-0.379-0.078-0.695-0.176-0.949-0.293v-1.619c0.313,0.225,0.654,0.398,1.025,0.521s0.706,0.183,1.004,0.183c0.811,0,1.216-0.269,1.216-0.806c0-0.19-0.04-0.343-0.121-0.458c-0.08-0.114-0.22-0.229-0.417-0.344c-0.198-0.114-0.505-0.258-0.92-0.429c-0.488-0.21-0.851-0.412-1.087-0.607c-0.237-0.195-0.413-0.425-0.527-0.688c-0.115-0.264-0.173-0.571-0.173-0.923c0-0.674,0.267-1.224,0.799-1.648s1.221-0.637,2.065-0.637c0.259,0,0.553,0.03,0.883,0.091c0.329,0.062,0.597,0.136,0.802,0.224v1.531c-0.229-0.156-0.501-0.282-0.813-0.378c-0.313-0.095-0.623-0.143-0.931-0.143c-0.337,0-0.604,0.076-0.798,0.228c-0.196,0.151-0.293,0.344-0.293,0.578c0,0.264,0.076,0.471,0.23,0.619c0.153,0.149,0.516,0.338,1.088,0.567c0.703,0.283,1.198,0.599,1.486,0.945S84.374,41.11,84.374,41.613z"></path>
<path fill="currentColor" d="M93.229,39.812c0,1.26-0.311,2.263-0.93,3.01c-0.621,0.747-1.461,1.121-2.52,1.121c-0.908,0-1.614-0.376-2.117-1.128h-0.029v4.395h-1.691v-10.95h1.691v1.201h0.029c0.596-0.923,1.426-1.384,2.49-1.384c0.957,0,1.709,0.334,2.256,1.003S93.229,38.659,93.229,39.812z M91.472,39.782c0-0.723-0.165-1.29-0.494-1.703c-0.33-0.412-0.79-0.619-1.381-0.619s-1.068,0.208-1.432,0.623c-0.364,0.415-0.546,0.952-0.546,1.611v0.959c0,0.552,0.173,1.007,0.521,1.366c0.346,0.358,0.778,0.538,1.296,0.538c0.645,0,1.145-0.239,1.501-0.718S91.472,40.676,91.472,39.782z"></path>
<path fill="currentColor" d="M95.186,47.282c-0.42,0-0.767-0.039-1.04-0.117v-1.443c0.269,0.122,0.544,0.184,0.828,0.184c0.6,0,1.039-0.32,1.318-0.96l0.512-1.187l-3.002-7.5h1.904l1.926,5.794h0.029l1.992-5.794h1.721l-3.252,8.401c-0.342,0.908-0.757,1.572-1.244,1.992C96.389,47.072,95.825,47.282,95.186,47.282z"></path>
</svg>
