<?xml version="1.0" encoding="utf-8"?>
<!-- Generator: Adobe Illustrator 19.0.0, SVG Export Plug-In . SVG Version: 6.00 Build 0)  -->
<svg version="1.1" id="Layer_1" xmlns="http://www.w3.org/2000/svg" xmlns:xlink="http://www.w3.org/1999/xlink" x="0px" y="0px"
	 viewBox="0 0 120 120" enable-background="new 0 0 120 120" xml:space="preserve">
<g id="XMLID_104_">
	<path id="XMLID_18_" fill-rule="evenodd" clip-rule="evenodd" fill="#00A552" d="M0,90c0,16.6,13.4,30,30,30s30-13.4,30-30V30
		C60,13.4,46.6,0,30,0S0,13.4,0,30V90z"/>
</g>
<rect id="XMLID_1_" x="30" fill-rule="evenodd" clip-rule="evenodd" fill="#00A552" width="30" height="120"/>
<g id="XMLID_105_">
	<path id="XMLID_17_" fill-rule="evenodd" clip-rule="evenodd" fill="#0052A5" d="M60,90c0,16.6,13.4,30,30,30s30-13.4,30-30V30
		c0-16.6-13.4-30-30-30S60,13.4,60,30V90z"/>
</g>
<path id="XMLID_95_" fill-rule="evenodd" clip-rule="evenodd" fill="#FFCC00" d="M35.1,84.6c0-1.1,0.2-2.3,1.1-2.7l0.1,3.6
	c0,0.6,0.1,1,0.4,1.4l0.1-0.1c0.1-0.1,0,0,0.1-0.1l0.1-0.9c0.1-1.3,0-2.9,0.1-3.9c0.8-0.1,1.1,1.7,1.1,2.6c0,0.9-0.1,1.7-0.4,2.4
	c-0.2,0.6-0.7,1.5-1.2,1.6c-0.4-0.7-0.5-0.6-0.9-1.7C35.3,86.2,35.1,85.3,35.1,84.6L35.1,84.6z M35.6,70l0.3,6.8
	c-0.5-0.2-0.9-0.8-1.1-1.3c-0.3-0.5-0.5-1.2-0.6-1.9c-0.1-0.8,0.1-1.5,0.3-2.1C34.7,70.8,34.9,70.1,35.6,70L35.6,70z M37.1,76.9
	l0.2-7.2c0.9,0.2,1.8,2,1.8,3.2v0.1C39.1,74.7,38.2,76.4,37.1,76.9L37.1,76.9z M35.2,55c0,2.3,0.5,6.6,0.3,8.4
	c-0.7-0.4-2.1-3.1-2.3-4.1C32.6,57.5,33.9,55.3,35.2,55L35.2,55z M37.5,63.5c-0.2-2.3-0.1-4.4,0-6.6c0-0.6,0-1.6,0.1-2.2
	c0.7,0.1,2.8,2,2.5,4.4c-0.1,1-0.6,1.8-1,2.5C38.8,62.1,37.9,63.3,37.5,63.5L37.5,63.5z M31.9,47c0.3-1.3,0.2-2.2,2.7-1.2
	C35.1,46,35,46,35,46.6l0,3.4c-1.8-0.2-4.9-1.2-5.1-2.8C30.4,47.2,31.6,47.2,31.9,47L31.9,47z M40.6,45.6c0.6,0,0.7-0.4,1.1-0.6
	c-0.1,0.3-0.8,1.1-0.7,1.4c0.6,1.1,1.3,0.9,2.2,0.8c-0.3,1.9-3.9,2.9-5.5,3.1c0-1,0-2,0-2.9C37.7,45.1,38.3,45.6,40.6,45.6
	L40.6,45.6z M49.8,34.2c0.2-0.6,0.9-1.2,1.1-1.9c0.2-1.1-1.1-1-1.9-1c-2-0.1-3.9-0.1-5.8-0.1c-0.6,0-2.3-0.1-2.8,0.1
	c-0.4,0.2-1.2,1.1-1.4,1.6c-0.8,1.5,0.8,2.2,0.9,4.5c-0.3,0.3-1.3,0.9-1.9,1c0.1-0.9,0.9-1.7,0.5-2.6c-0.6-1.6-3.2-1.9-4-0.1
	c-0.4,0.9,0.3,1.8,0.4,2.6c-0.4,0-1.8-0.6-1.8-1c-0.2-1.1,1.5-3,0.9-4.4c-0.3-0.7-0.7-1.2-1.3-1.5c-0.7-0.4-1.7-0.3-2.6-0.3
	c-0.9,0-1.8,0-2.7,0c-1,0-4.7,0-5.2,0.4c-0.2,0.5-0.1,1,0.1,1.5c0.2,0.4,0.6,0.8,0.7,1.1c-0.3,0.4-0.9,0.9-0.8,1.6
	c0.1,0.6,0.7,1.2,1,1.4c-0.2,1-0.3,1.7,0.3,2.4c0.6,0.6,1.4,0.5,2.4,0.4c0,1,0.2,0.9,0.7,1.4c0.5,0.5,0.4,0.8,0.8,1.3
	c0.3,0.5,0.5,0.3,1,1.1c0.5,0.8,0.4,0.4,1.3,0.8l-0.6,0.4c-0.3,0.2-0.3,0.2-0.6,0.5c-1.3,1.3-0.8,3.3,0.2,4.4c1.9,2,3.4,1.9,4.7,2.5
	c0.3,0.2,0.6,0.4,0.6,0.4c0,0,0,0,0,0c-0.4,0.7-1.4,1-2.6,2.9c-0.8,1.3-1,2.8-0.6,4.5c0.5,2,1.8,3.3,2.9,4.7
	c0.2,0.3,1.5,1.6,1.4,1.9c0,0.5-5.6,5.3-2.4,10.3c1.2,1.9,2,1.9,2.3,2.6c-0.6,1.7-2,3.1-1.6,5.5c0.3,1.8,1.4,3.9,3.2,3.9
	c2.5,0,4.1-4.1,2.8-7c-0.3-0.7-0.9-1.7-1.1-2.4c0.2-0.3,1-0.9,1.3-1.3c0.4-0.5,0.7-0.9,1.1-1.5c1.9-3.2,0.3-6.9-1.9-9.4
	c-0.7-0.8-0.6-0.7-0.1-1.5c1.3-1.9,3.5-3.4,4-6.4c0.5-3.4-1.1-4.5-2.7-6.2c-0.2-0.2-0.5-0.4-0.6-0.7c0.5-0.3,0.8-0.4,1.5-0.7
	c0.5-0.2,1-0.3,1.5-0.5c2.1-0.9,3.7-2.9,3.1-5c-0.5-1.7-1.9-1.6-2.4-1.8c0.1-0.2-0.1,0,0.2-0.2c0.4-0.2,0.6,0.3,1.2-0.7
	c0.8-1.2,0.5-0.3,1.1-1.1c0.5-0.7-0.2-0.4,0.8-1.3c0.8-0.8,0.3-0.5,0.7-1.4c0.8,0.2,1.7,0.3,2.3-0.3c0.6-0.6,0.4-1.5,0.3-2.4
	c0.3-0.2,0.9-0.8,1-1.4C50.6,35,50,34.6,49.8,34.2L49.8,34.2z"/>
<rect id="XMLID_6_" x="60" fill-rule="evenodd" clip-rule="evenodd" fill="#0052A5" width="30" height="120"/>
<g id="XMLID_91_">
	<path id="XMLID_92_" fill-rule="evenodd" clip-rule="evenodd" fill="#FFCC00" d="M80.4,60.7c-0.5-3.5,4.7-4.1,5.1-0.7
		C85.8,63.4,80.8,63.9,80.4,60.7L80.4,60.7z M82.1,54.3c-2,0.9-4.7,1.3-5,5.4c-0.1,1.9,0.6,2.8,1.2,4c0.7,1.4-0.2,2.3-0.9,3.7
		c-1.8,3.5-7.4,15.2-5.7,19.7c0.5,1.2,1.6,2.2,3.4,1.6c4.5-1.6,8.7-17.2,8.7-22.8c4.3-0.8,7.4-6.2,2.8-10.4
		c3.5-3.6,10.5-22.3,5.7-24.3C86.4,28.8,82.1,48.7,82.1,54.3L82.1,54.3z"/>
	<circle id="XMLID_106_" fill-rule="evenodd" clip-rule="evenodd" fill="#FFCC00" cx="82.9" cy="60.3" r="1.5"/>
</g>
</svg>
