<svg version="1.1" xmlns="http://www.w3.org/2000/svg" xmlns:xlink="http://www.w3.org/1999/xlink" x="0px" y="0px" viewBox="0 0 16 16" enable-background="new 0 0 16 16" xml:space="preserve"><path fill-rule="evenodd" clip-rule="evenodd" d="M2.9,13.5c0-0.2,0-0.5,0.2-0.6l0,0.8c0,0.1,0,0.2,0.1,0.3l0,0c0,0,0,0,0,0l0-0.2c0-0.3,0-0.7,0-0.9c0.2,0,0.3,0.4,0.3,0.6c0,0.2,0,0.4-0.1,0.5c0,0.1-0.2,0.3-0.3,0.4C3.1,14.2,3.1,14.2,3,14C3,13.8,2.9,13.6,2.9,13.5L2.9,13.5z M3,10.2l0.1,1.5c-0.1,0-0.2-0.2-0.3-0.3c-0.1-0.1-0.1-0.3-0.1-0.4c0-0.2,0-0.3,0.1-0.5C2.8,10.4,2.9,10.2,3,10.2L3,10.2z M3.1,11.8l0-1.6c0.2,0,0.4,0.4,0.4,0.7v0C3.5,11.3,3.3,11.7,3.1,11.8L3.1,11.8z M2.9,6.9C2.9,7.4,3,8.4,3,8.8C2.8,8.7,2.5,8.1,2.5,7.8C2.4,7.5,2.7,7,2.9,6.9L2.9,6.9z M3.4,8.8c0-0.5,0-1,0-1.5c0-0.1,0-0.4,0-0.5c0.2,0,0.6,0.4,0.5,1C4,8,3.9,8.2,3.8,8.4C3.7,8.5,3.5,8.7,3.4,8.8L3.4,8.8z M1.7,5.1c0.1-0.3,0-0.5,0.6-0.3c0.1,0,0.1,0,0.1,0.2l0,0.8C2,5.7,1.3,5.5,1.3,5.2C1.4,5.2,1.6,5.1,1.7,5.1L1.7,5.1z M4.1,4.8c0.1,0,0.2-0.1,0.2-0.1c0,0.1-0.2,0.2-0.1,0.3c0.1,0.2,0.3,0.2,0.5,0.2C4.6,5.6,3.9,5.8,3.5,5.8c0-0.2,0-0.4,0-0.7C3.5,4.7,3.6,4.8,4.1,4.8L4.1,4.8z M6.2,2.3C6.2,2.1,6.4,2,6.4,1.8c0-0.2-0.3-0.2-0.4-0.2c-0.4,0-0.9,0-1.3,0c-0.1,0-0.5,0-0.6,0C4,1.6,3.8,1.8,3.8,2C3.6,2.3,3.9,2.4,4,3C3.9,3,3.7,3.2,3.5,3.2c0-0.2,0.2-0.4,0.1-0.6c-0.1-0.4-0.7-0.4-0.9,0C2.7,2.8,2.8,3,2.9,3.2C2.8,3.2,2.5,3,2.4,2.9c0-0.3,0.3-0.7,0.2-1C2.6,1.8,2.5,1.7,2.4,1.6C2.2,1.6,2,1.6,1.8,1.6c-0.2,0-0.4,0-0.6,0c-0.2,0-1,0-1.2,0.1C0,1.8,0,1.9,0,2c0,0.1,0.1,0.2,0.1,0.2C0.1,2.3,0,2.4,0,2.6c0,0.1,0.2,0.3,0.2,0.3c0,0.2-0.1,0.4,0.1,0.5c0.1,0.1,0.3,0.1,0.5,0.1c0,0.2,0,0.2,0.2,0.3C1.1,3.9,1.1,4,1.2,4.1c0.1,0.1,0.1,0.1,0.2,0.2c0.1,0.2,0.1,0.1,0.3,0.2L1.5,4.6c-0.1,0-0.1,0.1-0.1,0.1c-0.3,0.3-0.2,0.7,0,1c0.4,0.5,0.8,0.4,1,0.6c0.1,0,0.1,0.1,0.1,0.1c0,0,0,0,0,0C2.5,6.5,2.3,6.6,2,7C1.9,7.3,1.8,7.6,1.9,8C2,8.5,2.3,8.7,2.6,9c0.1,0.1,0.3,0.4,0.3,0.4c0,0.1-1.2,1.2-0.5,2.3c0.3,0.4,0.4,0.4,0.5,0.6c-0.1,0.4-0.5,0.7-0.3,1.2c0.1,0.4,0.3,0.9,0.7,0.9c0.6,0,0.9-0.9,0.6-1.6c-0.1-0.2-0.2-0.4-0.3-0.5c0-0.1,0.2-0.2,0.3-0.3c0.1-0.1,0.2-0.2,0.2-0.3c0.4-0.7,0.1-1.5-0.4-2.1c-0.2-0.2-0.1-0.2,0-0.3C4,8.9,4.5,8.6,4.6,7.9c0.1-0.7-0.2-1-0.6-1.4c0-0.1-0.1-0.1-0.1-0.2C4,6.3,4,6.2,4.2,6.2c0.1,0,0.2-0.1,0.3-0.1C5,5.9,5.4,5.4,5.2,5C5.1,4.6,4.8,4.6,4.7,4.6c0,0,0,0,0,0c0.1,0,0.1,0.1,0.3-0.1c0.2-0.3,0.1-0.1,0.2-0.2C5.3,4,5.2,4,5.4,3.8c0.2-0.2,0.1-0.1,0.2-0.3c0.2,0,0.4,0.1,0.5-0.1c0.1-0.1,0.1-0.3,0.1-0.5c0.1,0,0.2-0.2,0.2-0.3C6.4,2.4,6.2,2.4,6.2,2.3L6.2,2.3z"/><path fill-rule="evenodd" clip-rule="evenodd" d="M13,8.2C12.9,7.4,14,7.2,14.1,8C14.2,8.8,13.1,8.9,13,8.2L13,8.2z M13.4,6.7c-0.4,0.2-1.1,0.3-1.1,1.2c0,0.4,0.1,0.6,0.3,0.9c0.2,0.3,0,0.5-0.2,0.8C11.9,10.4,10.7,13,11,14c0.1,0.3,0.4,0.5,0.7,0.3c1-0.4,1.9-3.8,1.9-5.1c1-0.2,1.6-1.4,0.6-2.3c0.8-0.8,2.3-4.9,1.3-5.4C14.3,1.1,13.4,5.5,13.4,6.7L13.4,6.7z"/><circle fill-rule="evenodd" clip-rule="evenodd" cx="13.5" cy="8.1" r="0.3"/></svg>
