<svg version="1.1" xmlns="http://www.w3.org/2000/svg" x="0px" y="0px" viewBox="0 0 16 16" enable-background="new 0 0 16 16"><rect fill="none" width="16" height="16"/><path fill="none" d="M8.221,7.318c-0.376-0.122-0.78,0.084-0.902,0.46c-0.122,0.377,0.084,0.781,0.46,0.903c0.376,0.122,0.78-0.084,0.902-0.46C8.803,7.845,8.597,7.441,8.221,7.318z M8.341,8.111c-0.061,0.188-0.263,0.291-0.451,0.23C7.701,8.28,7.598,8.078,7.659,7.889c0.061-0.188,0.263-0.291,0.451-0.23C8.299,7.72,8.402,7.922,8.341,8.111z"/><circle id="XMLID_9_" cx="8" cy="8" r="0.358"/><path id="XMLID_12_" d="M10.303,2.7c0.005-0.484-0.163-0.599-0.367-0.666C9.732,1.968,9.528,1.962,9.248,2.357C8.949,2.779,8.642,3.413,8.403,4.149C8.081,5.142,7.968,6.057,8.072,6.568C7.441,6.536,6.842,6.927,6.638,7.557s0.05,1.299,0.58,1.644c-0.384,0.352-0.83,1.159-1.153,2.152c-0.239,0.736-0.363,1.43-0.368,1.947c-0.005,0.484,0.163,0.599,0.367,0.666c0.205,0.067,0.408,0.072,0.688-0.323c0.299-0.422,0.606-1.056,0.845-1.792c0.322-0.993,0.435-1.908,0.331-2.419c0.631,0.032,1.229-0.359,1.434-0.989s-0.05-1.299-0.58-1.644c0.384-0.352,0.83-1.159,1.153-2.152C10.174,3.912,10.298,3.218,10.303,2.7z M8.681,8.221c-0.122,0.377-0.526,0.583-0.902,0.46c-0.376-0.122-0.582-0.527-0.46-0.903c0.122-0.377,0.526-0.583,0.902-0.46C8.597,7.441,8.803,7.845,8.681,8.221z"/></svg>
